<svg xmlns="http://www.w3.org/2000/svg" xmlns:xlink="http://www.w3.org/1999/xlink" version="1.1" viewBox="0 0 199.066681 164.779419" viewport="0 0 400px 329px">
<!-- Original BoundingBox: -99.604095 -56.942902 99.462585 107.836517 -->
  <defs>
    <g transform="scale(0.009963,0.009963)" id="GLYPHcmr10_40">
      <path style="fill-rule: evenodd;" d="M331.000000 240.000000C331.000000 237.000000,331.000000 235.000000,314.000000 218.000000C189.000000 92.000000,157.000000 -97.000000,157.000000 -250.000000C157.000000 -424.000000,195.000000 -598.000000,318.000000 -723.000000C331.000000 -735.000000,331.000000 -737.000000,331.000000 -740.000000C331.000000 -747.000000,327.000000 -750.000000,321.000000 -750.000000C311.000000 -750.000000,221.000000 -682.000000,162.000000 -555.000000C111.000000 -445.000000,99.000000 -334.000000,99.000000 -250.000000C99.000000 -172.000000,110.000000 -51.000000,165.000000 62.000000C225.000000 185.000000,311.000000 250.000000,321.000000 250.000000C327.000000 250.000000,331.000000 247.000000,331.000000 240.000000"/>
    </g>
    <g transform="scale(0.009963,0.009963)" id="GLYPHcmr10_41">
      <path style="fill-rule: evenodd;" d="M289.000000 -250.000000C289.000000 -328.000000,278.000000 -449.000000,223.000000 -562.000000C163.000000 -685.000000,77.000000 -750.000000,67.000000 -750.000000C61.000000 -750.000000,57.000000 -746.000000,57.000000 -740.000000C57.000000 -737.000000,57.000000 -735.000000,76.000000 -717.000000C174.000000 -618.000000,231.000000 -459.000000,231.000000 -250.000000C231.000000 -79.000000,194.000000 97.000000,70.000000 223.000000C57.000000 235.000000,57.000000 237.000000,57.000000 240.000000C57.000000 246.000000,61.000000 250.000000,67.000000 250.000000C77.000000 250.000000,167.000000 182.000000,226.000000 55.000000C277.000000 -55.000000,289.000000 -166.000000,289.000000 -250.000000"/>
    </g>
    <g transform="scale(0.009963,0.009963)" id="GLYPHcmr10_48">
      <path style="fill-rule: evenodd;" d="M460.000000 -320.000000C460.000000 -400.000000,455.000000 -480.000000,420.000000 -554.000000C374.000000 -650.000000,292.000000 -666.000000,250.000000 -666.000000C190.000000 -666.000000,117.000000 -640.000000,76.000000 -547.000000C44.000000 -478.000000,39.000000 -400.000000,39.000000 -320.000000C39.000000 -245.000000,43.000000 -155.000000,84.000000 -79.000000C127.000000 2.000000,200.000000 22.000000,249.000000 22.000000C303.000000 22.000000,379.000000 1.000000,423.000000 -94.000000C455.000000 -163.000000,460.000000 -241.000000,460.000000 -320.000000M249.000000 -0.000000C210.000000 -0.000000,151.000000 -25.000000,133.000000 -121.000000C122.000000 -181.000000,122.000000 -273.000000,122.000000 -332.000000C122.000000 -396.000000,122.000000 -462.000000,130.000000 -516.000000C149.000000 -635.000000,224.000000 -644.000000,249.000000 -644.000000C282.000000 -644.000000,348.000000 -626.000000,367.000000 -527.000000C377.000000 -471.000000,377.000000 -395.000000,377.000000 -332.000000C377.000000 -257.000000,377.000000 -189.000000,366.000000 -125.000000C351.000000 -30.000000,294.000000 -0.000000,249.000000 -0.000000"/>
    </g>
    <g transform="scale(0.009963,0.009963)" id="GLYPHcmmi10_18">
      <path style="fill-rule: evenodd;" d="M455.000000 -500.000000C455.000000 -566.000000,437.000000 -705.000000,335.000000 -705.000000C196.000000 -705.000000,42.000000 -423.000000,42.000000 -194.000000C42.000000 -100.000000,71.000000 11.000000,162.000000 11.000000C303.000000 11.000000,455.000000 -276.000000,455.000000 -500.000000M148.000000 -363.000000C165.000000 -427.000000,185.000000 -507.000000,225.000000 -578.000000C252.000000 -627.000000,289.000000 -683.000000,334.000000 -683.000000C383.000000 -683.000000,389.000000 -619.000000,389.000000 -562.000000C389.000000 -513.000000,381.000000 -462.000000,357.000000 -363.000000M348.000000 -331.000000C337.000000 -285.000000,316.000000 -200.000000,278.000000 -128.000000C243.000000 -60.000000,205.000000 -11.000000,162.000000 -11.000000C129.000000 -11.000000,108.000000 -40.000000,108.000000 -133.000000C108.000000 -175.000000,114.000000 -233.000000,140.000000 -331.000000"/>
    </g>
    <g transform="scale(0.009963,0.009963)" id="GLYPHcmmi10_22">
      <path style="fill-rule: evenodd;" d="M231.000000 -351.000000C236.000000 -372.000000,246.000000 -410.000000,246.000000 -415.000000C246.000000 -432.000000,234.000000 -442.000000,217.000000 -442.000000C214.000000 -442.000000,186.000000 -441.000000,177.000000 -406.000000L33.000000 173.000000C30.000000 185.000000,30.000000 187.000000,30.000000 189.000000C30.000000 204.000000,41.000000 216.000000,58.000000 216.000000C79.000000 216.000000,91.000000 198.000000,93.000000 195.000000C97.000000 186.000000,110.000000 134.000000,148.000000 -20.000000C180.000000 7.000000,225.000000 11.000000,245.000000 11.000000C315.000000 11.000000,354.000000 -34.000000,378.000000 -62.000000C387.000000 -17.000000,424.000000 11.000000,468.000000 11.000000C503.000000 11.000000,526.000000 -12.000000,542.000000 -44.000000C559.000000 -80.000000,572.000000 -141.000000,572.000000 -143.000000C572.000000 -153.000000,563.000000 -153.000000,560.000000 -153.000000C550.000000 -153.000000,549.000000 -149.000000,546.000000 -135.000000C529.000000 -70.000000,511.000000 -11.000000,470.000000 -11.000000C443.000000 -11.000000,440.000000 -37.000000,440.000000 -57.000000C440.000000 -79.000000,452.000000 -126.000000,460.000000 -161.000000L488.000000 -269.000000C491.000000 -284.000000,501.000000 -322.000000,505.000000 -337.000000C510.000000 -360.000000,520.000000 -398.000000,520.000000 -404.000000C520.000000 -422.000000,506.000000 -431.000000,491.000000 -431.000000C486.000000 -431.000000,460.000000 -430.000000,452.000000 -396.000000L405.000000 -209.000000C393.000000 -159.000000,382.000000 -117.000000,379.000000 -107.000000C378.000000 -102.000000,330.000000 -11.000000,249.000000 -11.000000C199.000000 -11.000000,175.000000 -44.000000,175.000000 -98.000000C175.000000 -127.000000,182.000000 -155.000000,189.000000 -183.000000"/>
    </g>
    <g transform="scale(0.009963,0.009963)" id="GLYPHcmmi10_33">
      <path style="fill-rule: evenodd;" d="M605.000000 -372.000000C605.000000 -417.000000,587.000000 -442.000000,565.000000 -442.000000C539.000000 -442.000000,512.000000 -418.000000,512.000000 -395.000000C512.000000 -385.000000,517.000000 -374.000000,527.000000 -365.000000C544.000000 -350.000000,562.000000 -323.000000,562.000000 -281.000000C562.000000 -241.000000,543.000000 -184.000000,512.000000 -138.000000C482.000000 -95.000000,445.000000 -61.000000,398.000000 -61.000000C341.000000 -61.000000,310.000000 -97.000000,301.000000 -151.000000C312.000000 -177.000000,335.000000 -241.000000,335.000000 -269.000000C335.000000 -281.000000,330.000000 -291.000000,317.000000 -291.000000C309.000000 -291.000000,298.000000 -289.000000,290.000000 -274.000000C279.000000 -254.000000,267.000000 -189.000000,267.000000 -153.000000C234.000000 -106.000000,194.000000 -61.000000,131.000000 -61.000000C65.000000 -61.000000,44.000000 -120.000000,44.000000 -176.000000C44.000000 -301.000000,146.000000 -406.000000,146.000000 -419.000000C146.000000 -430.000000,138.000000 -438.000000,127.000000 -438.000000C114.000000 -438.000000,107.000000 -425.000000,101.000000 -416.000000C50.000000 -342.000000,12.000000 -223.000000,12.000000 -132.000000C12.000000 -63.000000,35.000000 11.000000,117.000000 11.000000C188.000000 11.000000,235.000000 -39.000000,271.000000 -94.000000C280.000000 -36.000000,319.000000 11.000000,381.000000 11.000000C459.000000 11.000000,507.000000 -50.000000,543.000000 -125.000000C567.000000 -174.000000,605.000000 -310.000000,605.000000 -372.000000"/>
    </g>
    <g transform="scale(0.009963,0.009963)" id="GLYPHcmmi10_59">
      <path style="fill-rule: evenodd;" d="M203.000000 -1.000000C203.000000 -67.000000,178.000000 -106.000000,139.000000 -106.000000C106.000000 -106.000000,86.000000 -81.000000,86.000000 -53.000000C86.000000 -26.000000,106.000000 -0.000000,139.000000 -0.000000C151.000000 -0.000000,164.000000 -4.000000,174.000000 -13.000000C177.000000 -15.000000,178.000000 -16.000000,179.000000 -16.000000C180.000000 -16.000000,181.000000 -15.000000,181.000000 -1.000000C181.000000 73.000000,146.000000 133.000000,113.000000 166.000000C102.000000 177.000000,102.000000 179.000000,102.000000 182.000000C102.000000 189.000000,107.000000 193.000000,112.000000 193.000000C123.000000 193.000000,203.000000 116.000000,203.000000 -1.000000"/>
    </g>
    <g transform="scale(0.009963,0.009963)" id="GLYPHcmmi10_110">
      <path style="fill-rule: evenodd;" d="M88.000000 -59.000000C85.000000 -44.000000,79.000000 -21.000000,79.000000 -16.000000C79.000000 2.000000,93.000000 11.000000,108.000000 11.000000C120.000000 11.000000,138.000000 3.000000,145.000000 -17.000000C146.000000 -19.000000,158.000000 -66.000000,164.000000 -91.000000L186.000000 -181.000000C192.000000 -203.000000,198.000000 -225.000000,203.000000 -248.000000C207.000000 -265.000000,215.000000 -294.000000,216.000000 -298.000000C231.000000 -329.000000,284.000000 -420.000000,379.000000 -420.000000C424.000000 -420.000000,433.000000 -383.000000,433.000000 -350.000000C433.000000 -288.000000,384.000000 -160.000000,368.000000 -117.000000C359.000000 -94.000000,358.000000 -82.000000,358.000000 -71.000000C358.000000 -24.000000,393.000000 11.000000,440.000000 11.000000C534.000000 11.000000,571.000000 -135.000000,571.000000 -143.000000C571.000000 -153.000000,562.000000 -153.000000,559.000000 -153.000000C549.000000 -153.000000,549.000000 -150.000000,544.000000 -135.000000C524.000000 -67.000000,491.000000 -11.000000,442.000000 -11.000000C425.000000 -11.000000,418.000000 -21.000000,418.000000 -44.000000C418.000000 -69.000000,427.000000 -93.000000,436.000000 -115.000000C455.000000 -168.000000,497.000000 -278.000000,497.000000 -335.000000C497.000000 -402.000000,454.000000 -442.000000,382.000000 -442.000000C292.000000 -442.000000,243.000000 -378.000000,226.000000 -355.000000C221.000000 -411.000000,180.000000 -442.000000,134.000000 -442.000000C88.000000 -442.000000,69.000000 -403.000000,59.000000 -385.000000C43.000000 -351.000000,29.000000 -292.000000,29.000000 -288.000000C29.000000 -278.000000,39.000000 -278.000000,41.000000 -278.000000C51.000000 -278.000000,52.000000 -279.000000,58.000000 -301.000000C75.000000 -372.000000,95.000000 -420.000000,131.000000 -420.000000C151.000000 -420.000000,162.000000 -407.000000,162.000000 -374.000000C162.000000 -353.000000,159.000000 -342.000000,146.000000 -290.000000"/>
    </g>
    <g transform="scale(0.009963,0.009963)" id="GLYPHcmmi10_112">
      <path style="fill-rule: evenodd;" d="M45.000000 122.000000C37.000000 156.000000,35.000000 163.000000,-9.000000 163.000000C-21.000000 163.000000,-32.000000 163.000000,-32.000000 182.000000C-32.000000 190.000000,-27.000000 194.000000,-19.000000 194.000000C8.000000 194.000000,37.000000 191.000000,65.000000 191.000000C98.000000 191.000000,132.000000 194.000000,164.000000 194.000000C169.000000 194.000000,182.000000 194.000000,182.000000 174.000000C182.000000 163.000000,172.000000 163.000000,158.000000 163.000000C108.000000 163.000000,108.000000 156.000000,108.000000 147.000000C108.000000 135.000000,150.000000 -28.000000,157.000000 -53.000000C170.000000 -24.000000,198.000000 11.000000,249.000000 11.000000C365.000000 11.000000,490.000000 -135.000000,490.000000 -282.000000C490.000000 -376.000000,433.000000 -442.000000,357.000000 -442.000000C307.000000 -442.000000,259.000000 -406.000000,226.000000 -367.000000C216.000000 -421.000000,173.000000 -442.000000,136.000000 -442.000000C90.000000 -442.000000,71.000000 -403.000000,62.000000 -385.000000C44.000000 -351.000000,31.000000 -291.000000,31.000000 -288.000000C31.000000 -278.000000,41.000000 -278.000000,43.000000 -278.000000C53.000000 -278.000000,54.000000 -279.000000,60.000000 -301.000000C77.000000 -372.000000,97.000000 -420.000000,133.000000 -420.000000C150.000000 -420.000000,164.000000 -412.000000,164.000000 -374.000000C164.000000 -351.000000,161.000000 -340.000000,157.000000 -323.000000M221.000000 -312.000000C228.000000 -339.000000,255.000000 -367.000000,273.000000 -382.000000C308.000000 -413.000000,337.000000 -420.000000,354.000000 -420.000000C394.000000 -420.000000,418.000000 -385.000000,418.000000 -326.000000C418.000000 -267.000000,385.000000 -152.000000,367.000000 -114.000000C333.000000 -44.000000,285.000000 -11.000000,248.000000 -11.000000C182.000000 -11.000000,169.000000 -94.000000,169.000000 -100.000000C169.000000 -102.000000,169.000000 -104.000000,172.000000 -116.000000"/>
    </g>
    <g transform="scale(0.009963,0.009963)" id="GLYPHcmmi10_115">
      <path style="fill-rule: evenodd;" d="M391.000000 -374.000000C363.000000 -373.000000,343.000000 -351.000000,343.000000 -329.000000C343.000000 -315.000000,352.000000 -300.000000,374.000000 -300.000000C396.000000 -300.000000,420.000000 -317.000000,420.000000 -356.000000C420.000000 -401.000000,377.000000 -442.000000,301.000000 -442.000000C169.000000 -442.000000,132.000000 -340.000000,132.000000 -296.000000C132.000000 -218.000000,206.000000 -203.000000,235.000000 -197.000000C287.000000 -187.000000,339.000000 -176.000000,339.000000 -121.000000C339.000000 -95.000000,316.000000 -11.000000,196.000000 -11.000000C182.000000 -11.000000,105.000000 -11.000000,82.000000 -64.000000C120.000000 -59.000000,145.000000 -89.000000,145.000000 -117.000000C145.000000 -140.000000,129.000000 -152.000000,108.000000 -152.000000C82.000000 -152.000000,52.000000 -131.000000,52.000000 -86.000000C52.000000 -29.000000,109.000000 11.000000,195.000000 11.000000C357.000000 11.000000,396.000000 -110.000000,396.000000 -155.000000C396.000000 -191.000000,377.000000 -216.000000,365.000000 -228.000000C338.000000 -256.000000,309.000000 -261.000000,265.000000 -270.000000C229.000000 -278.000000,189.000000 -285.000000,189.000000 -330.000000C189.000000 -359.000000,213.000000 -420.000000,301.000000 -420.000000C326.000000 -420.000000,376.000000 -413.000000,391.000000 -374.000000"/>
    </g>
    <g transform="scale(0.009963,0.009963)" id="GLYPHcmmi10_116">
      <path style="fill-rule: evenodd;" d="M206.000000 -400.000000L300.000000 -400.000000C320.000000 -400.000000,330.000000 -400.000000,330.000000 -420.000000C330.000000 -431.000000,320.000000 -431.000000,302.000000 -431.000000L214.000000 -431.000000C250.000000 -573.000000,255.000000 -593.000000,255.000000 -599.000000C255.000000 -616.000000,243.000000 -626.000000,226.000000 -626.000000C223.000000 -626.000000,195.000000 -625.000000,186.000000 -590.000000L147.000000 -431.000000L53.000000 -431.000000C33.000000 -431.000000,23.000000 -431.000000,23.000000 -412.000000C23.000000 -400.000000,31.000000 -400.000000,51.000000 -400.000000L139.000000 -400.000000C67.000000 -116.000000,63.000000 -99.000000,63.000000 -81.000000C63.000000 -27.000000,101.000000 11.000000,155.000000 11.000000C257.000000 11.000000,314.000000 -135.000000,314.000000 -143.000000C314.000000 -153.000000,306.000000 -153.000000,302.000000 -153.000000C293.000000 -153.000000,292.000000 -150.000000,287.000000 -139.000000C244.000000 -35.000000,191.000000 -11.000000,157.000000 -11.000000C136.000000 -11.000000,126.000000 -24.000000,126.000000 -57.000000C126.000000 -81.000000,128.000000 -88.000000,132.000000 -105.000000"/>
    </g>
    <g transform="scale(0.009963,0.009963)" id="GLYPHcmmi10_120">
      <path style="fill-rule: evenodd;" d="M334.000000 -302.000000C340.000000 -328.000000,363.000000 -420.000000,433.000000 -420.000000C438.000000 -420.000000,462.000000 -420.000000,483.000000 -407.000000C455.000000 -402.000000,435.000000 -377.000000,435.000000 -353.000000C435.000000 -337.000000,446.000000 -318.000000,473.000000 -318.000000C495.000000 -318.000000,527.000000 -336.000000,527.000000 -376.000000C527.000000 -428.000000,468.000000 -442.000000,434.000000 -442.000000C376.000000 -442.000000,341.000000 -389.000000,329.000000 -366.000000C304.000000 -432.000000,250.000000 -442.000000,221.000000 -442.000000C117.000000 -442.000000,60.000000 -313.000000,60.000000 -288.000000C60.000000 -278.000000,70.000000 -278.000000,72.000000 -278.000000C80.000000 -278.000000,83.000000 -280.000000,85.000000 -289.000000C119.000000 -395.000000,185.000000 -420.000000,219.000000 -420.000000C238.000000 -420.000000,273.000000 -411.000000,273.000000 -353.000000C273.000000 -322.000000,256.000000 -255.000000,219.000000 -115.000000C203.000000 -53.000000,168.000000 -11.000000,124.000000 -11.000000C118.000000 -11.000000,95.000000 -11.000000,74.000000 -24.000000C99.000000 -29.000000,121.000000 -50.000000,121.000000 -78.000000C121.000000 -105.000000,99.000000 -113.000000,84.000000 -113.000000C54.000000 -113.000000,29.000000 -87.000000,29.000000 -55.000000C29.000000 -9.000000,79.000000 11.000000,123.000000 11.000000C189.000000 11.000000,225.000000 -59.000000,228.000000 -65.000000C240.000000 -28.000000,276.000000 11.000000,336.000000 11.000000C439.000000 11.000000,496.000000 -118.000000,496.000000 -143.000000C496.000000 -153.000000,487.000000 -153.000000,484.000000 -153.000000C475.000000 -153.000000,473.000000 -149.000000,471.000000 -142.000000C438.000000 -35.000000,370.000000 -11.000000,338.000000 -11.000000C299.000000 -11.000000,283.000000 -43.000000,283.000000 -77.000000C283.000000 -99.000000,289.000000 -121.000000,300.000000 -165.000000"/>
    </g>
    <g transform="scale(0.009963,0.009963)" id="GLYPHcmmi10_121">
      <path style="fill-rule: evenodd;" d="M486.000000 -381.000000C490.000000 -395.000000,490.000000 -397.000000,490.000000 -404.000000C490.000000 -422.000000,476.000000 -431.000000,461.000000 -431.000000C451.000000 -431.000000,435.000000 -425.000000,426.000000 -410.000000C424.000000 -405.000000,416.000000 -374.000000,412.000000 -356.000000C405.000000 -330.000000,398.000000 -303.000000,392.000000 -276.000000L347.000000 -96.000000C343.000000 -81.000000,300.000000 -11.000000,234.000000 -11.000000C183.000000 -11.000000,172.000000 -55.000000,172.000000 -92.000000C172.000000 -138.000000,189.000000 -200.000000,223.000000 -288.000000C239.000000 -329.000000,243.000000 -340.000000,243.000000 -360.000000C243.000000 -405.000000,211.000000 -442.000000,161.000000 -442.000000C66.000000 -442.000000,29.000000 -297.000000,29.000000 -288.000000C29.000000 -278.000000,39.000000 -278.000000,41.000000 -278.000000C51.000000 -278.000000,52.000000 -280.000000,57.000000 -296.000000C84.000000 -390.000000,124.000000 -420.000000,158.000000 -420.000000C166.000000 -420.000000,183.000000 -420.000000,183.000000 -388.000000C183.000000 -363.000000,173.000000 -337.000000,166.000000 -318.000000C126.000000 -212.000000,108.000000 -155.000000,108.000000 -108.000000C108.000000 -19.000000,171.000000 11.000000,230.000000 11.000000C269.000000 11.000000,303.000000 -6.000000,331.000000 -34.000000C318.000000 18.000000,306.000000 67.000000,266.000000 120.000000C240.000000 154.000000,202.000000 183.000000,156.000000 183.000000C142.000000 183.000000,97.000000 180.000000,80.000000 141.000000C96.000000 141.000000,109.000000 141.000000,123.000000 129.000000C133.000000 120.000000,143.000000 107.000000,143.000000 88.000000C143.000000 57.000000,116.000000 53.000000,106.000000 53.000000C83.000000 53.000000,50.000000 69.000000,50.000000 118.000000C50.000000 168.000000,94.000000 205.000000,156.000000 205.000000C259.000000 205.000000,362.000000 114.000000,390.000000 1.000000"/>
    </g>
    <g transform="scale(0.009963,0.009963)" id="GLYPHcmmi10_126">
      <path style="fill-rule: evenodd;" d="M537.000000 -595.000000C523.000000 -582.000000,490.000000 -554.000000,490.000000 -536.000000C490.000000 -526.000000,500.000000 -516.000000,510.000000 -516.000000C519.000000 -516.000000,524.000000 -523.000000,529.000000 -529.000000C541.000000 -544.000000,564.000000 -572.000000,608.000000 -594.000000C615.000000 -598.000000,625.000000 -603.000000,625.000000 -615.000000C625.000000 -625.000000,618.000000 -630.000000,611.000000 -635.000000C589.000000 -650.000000,578.000000 -668.000000,570.000000 -692.000000C568.000000 -701.000000,564.000000 -714.000000,550.000000 -714.000000C536.000000 -714.000000,530.000000 -701.000000,530.000000 -693.000000C530.000000 -688.000000,538.000000 -656.000000,554.000000 -635.000000L217.000000 -635.000000C200.000000 -635.000000,182.000000 -635.000000,182.000000 -615.000000C182.000000 -595.000000,200.000000 -595.000000,217.000000 -595.000000"/>
    </g>
    <g transform="scale(0.006974,0.006974)" id="GLYPHcmmi7_18">
      <path style="fill-rule: evenodd;" d="M511.000000 -487.000000C511.000000 -592.000000,471.000000 -704.000000,373.000000 -704.000000C223.000000 -704.000000,63.000000 -436.000000,63.000000 -207.000000C63.000000 -88.000000,109.000000 10.000000,201.000000 10.000000C353.000000 10.000000,511.000000 -263.000000,511.000000 -487.000000M176.000000 -365.000000C227.000000 -581.000000,313.000000 -676.000000,372.000000 -676.000000C436.000000 -676.000000,436.000000 -565.000000,436.000000 -546.000000C436.000000 -507.000000,428.000000 -449.000000,407.000000 -365.000000M398.000000 -329.000000C370.000000 -220.000000,347.000000 -166.000000,317.000000 -117.000000C286.000000 -65.000000,246.000000 -18.000000,202.000000 -18.000000C147.000000 -18.000000,138.000000 -94.000000,138.000000 -148.000000C138.000000 -214.000000,157.000000 -292.000000,167.000000 -329.000000"/>
    </g>
  </defs>
  <path d="M13.960648 107.000000L155.692902 107.000000" style="stroke:rgb(0.000000%,0.000000%,0.000000%); stroke-width: 0.500000;stroke-linecap: round;stroke-linejoin: round;stroke-miterlimit: 10.000000;fill: none;"/>
  <path d="M151.996536 108.531128L155.692902 107.000000L151.996536 105.468872Z" style="stroke:rgb(0.000000%,0.000000%,0.000000%); stroke-width: 0.500000;fill: rgb(0.000000%,0.000000%,0.000000%);"/>
  <path d="M99.000000 163.692902L99.000000 21.960648" style="stroke:rgb(0.000000%,0.000000%,0.000000%); stroke-width: 0.500000;stroke-linecap: round;stroke-linejoin: round;stroke-miterlimit: 10.000000;fill: none;"/>
  <path d="M100.531128 25.657013L99.000000 21.960648L97.468872 25.657013Z" style="stroke:rgb(0.000000%,0.000000%,0.000000%); stroke-width: 0.500000;fill: rgb(0.000000%,0.000000%,0.000000%);"/>
  <g transform="translate(101.099991 115.520386)" style="fill: rgb(0.000000%,0.000000%,0.000000%);">
    <use xlink:href="#GLYPHcmr10_48"/>
  </g>
  <g transform="translate(158.692902 109.144760)" style="fill: rgb(0.000000%,0.000000%,0.000000%);">
    <use xlink:href="#GLYPHcmmi10_120"/>
  </g>
  <g transform="translate(96.379044 17.023453)" style="fill: rgb(0.000000%,0.000000%,0.000000%);">
    <use xlink:href="#GLYPHcmmi10_121"/>
  </g>
  <path d="M69.900558 152.320297L128.099442 61.679703" style="stroke:rgb(7.421875%,63.671875%,89.453125%); stroke-width: 0.500000;stroke-linecap: round;stroke-linejoin: round;stroke-miterlimit: 10.000000;fill: none;"/>
  <path d="M120.259842 107.000000C120.259842 99.761902,116.577332 93.021057,110.486664 89.110336" style="stroke:rgb(0.000000%,0.000000%,0.000000%); stroke-width: 0.500000;stroke-linecap: round;stroke-linejoin: round;stroke-miterlimit: 10.000000;fill: none;"/>
  <path d="M114.339294 90.185730C113.103745 89.711502,111.815063 89.349442,110.486664 89.110336C111.256897 90.218735,111.912094 91.386002,112.450409 92.595032Z" style="stroke:rgb(0.000000%,0.000000%,0.000000%); stroke-width: 0.500000;fill: rgb(0.000000%,0.000000%,0.000000%);"/>
  <g transform="translate(108.186600 104.900009)" style="fill: rgb(0.000000%,0.000000%,0.000000%);">
    <use xlink:href="#GLYPHcmmi10_18"/>
  </g>
  <path d="M98.069778 104.863342C97.660614 105.500534,98.218781 106.251556,98.790329 106.865524L98.999924 107.000076L99.028885 106.954971C98.606293 106.431473,98.314270 105.763031,98.651993 105.237091Z" style="stroke:rgb(0.000000%,0.000000%,0.000000%); stroke-width: 0.193710;fill: rgb(0.000000%,0.000000%,0.000000%);"/>
  <path d="M118.700775 75.856415C117.904617 75.592270,116.989395 75.397339,116.580185 76.034760L117.162338 76.408615C117.500107 75.882492,118.229492 75.869766,118.881393 76.036102L118.910355 75.990997Z" style="stroke:rgb(0.000000%,0.000000%,0.000000%); stroke-width: 0.193710;fill: rgb(0.000000%,0.000000%,0.000000%);"/>
  <path d="M106.323654 89.805969C106.962814 90.459412,107.641373 91.236725,107.207214 91.912903L106.625076 91.539017C106.989182 90.971970,106.589996 90.259079,106.099899 89.693466L106.128204 89.649307C106.846436 89.859665,107.660767 89.926041,108.024963 89.358810L108.607117 89.732697C108.172836 90.409088,107.183716 90.115402,106.323608 89.806000Z" style="stroke:rgb(0.000000%,0.000000%,0.000000%); stroke-width: 0.193710;fill: rgb(0.000000%,0.000000%,0.000000%);"/>
  <path d="M98.360947 105.050064L106.916138 91.725983" style="stroke:rgb(0.000000%,0.000000%,0.000000%); stroke-width: 0.885559;stroke-linecap: round;stroke-linejoin: round;stroke-miterlimit: 10.000000;fill: none;"/>
  <path d="M108.316086 89.545670L116.871277 76.221588" style="stroke:rgb(0.000000%,0.000000%,0.000000%); stroke-width: 0.885559;stroke-linecap: round;stroke-linejoin: round;stroke-miterlimit: 10.000000;fill: none;"/>
  <g transform="translate(102.185150 89.395599)" style="fill: rgb(0.000000%,0.000000%,0.000000%);">
    <use xlink:href="#GLYPHcmmi10_115"/>
  </g>
  <path d="M-0.354095 -0.586517L118.910263 75.991196" style="stroke:rgb(92.187500%,5.078125%,34.375000%); stroke-width: 0.500000;stroke-linecap: round;stroke-linejoin: round;stroke-miterlimit: 10.000000;fill: none;"/>
  <path d="M114.972626 75.282455L118.910263 75.991196L116.627136 72.705673Z" style="stroke:rgb(92.187500%,5.078125%,34.375000%); stroke-width: 0.500000;fill: rgb(92.187500%,5.078125%,34.375000%);"/>
  <g transform="translate(121.010254 85.563187)" style="fill: rgb(92.187500%,5.078125%,34.375000%);">
    <use xlink:href="#GLYPHcmmi10_112"/>
  </g>
  <g transform="translate(126.022751 87.057587)" style="fill: rgb(92.187500%,5.078125%,34.375000%);">
    <use xlink:href="#GLYPHcmmi7_18"/>
  </g>
  <g transform="translate(130.530060 85.563187)" style="fill: rgb(92.187500%,5.078125%,34.375000%);">
    <use xlink:href="#GLYPHcmr10_40"/>
  </g>
  <g transform="translate(134.404449 85.563187)" style="fill: rgb(92.187500%,5.078125%,34.375000%);">
    <use xlink:href="#GLYPHcmmi10_115"/>
  </g>
  <g transform="translate(139.074448 85.563187)" style="fill: rgb(92.187500%,5.078125%,34.375000%);">
    <use xlink:href="#GLYPHcmr10_41"/>
  </g>
  <path d="M113.173233 36.133865L128.488770 12.280991" style="stroke:rgb(7.421875%,63.671875%,89.453125%); stroke-width: 0.500000;stroke-linecap: round;stroke-linejoin: round;stroke-miterlimit: 10.000000;fill: none;"/>
  <path d="M127.780167 16.217773L128.488770 12.280991L125.203934 14.563599Z" style="stroke:rgb(7.421875%,63.671875%,89.453125%); stroke-width: 0.500000;fill: rgb(7.421875%,63.671875%,89.453125%);"/>
  <path d="M113.173233 36.133865L137.026108 51.449402" style="stroke:rgb(92.187500%,5.078125%,34.375000%); stroke-width: 0.500000;stroke-linecap: round;stroke-linejoin: round;stroke-miterlimit: 10.000000;fill: none;"/>
  <path d="M133.089325 50.740799L137.026108 51.449402L134.743500 48.164566Z" style="stroke:rgb(92.187500%,5.078125%,34.375000%); stroke-width: 0.500000;fill: rgb(92.187500%,5.078125%,34.375000%);"/>
  <path d="M56.480331 36.133865L198.212585 36.133865" style="stroke:rgb(0.000000%,0.000000%,0.000000%); stroke-width: 0.500000;stroke-linecap: round;stroke-dasharray: 3.000000 3.000000 ;stroke-linejoin: round;stroke-miterlimit: 10.000000;fill: none;"/>
  <g transform="translate(118.774277 53.009338)" style="fill: rgb(92.187500%,5.078125%,34.375000%);">
    <use xlink:href="#GLYPHcmmi10_126"/>
  </g>
  <g transform="translate(119.402084 54.847733)" style="fill: rgb(92.187500%,5.078125%,34.375000%);">
    <use xlink:href="#GLYPHcmmi10_116"/>
  </g>
  <g transform="translate(112.484207 22.107437)" style="fill: rgb(7.421875%,63.671875%,89.453125%);">
    <use xlink:href="#GLYPHcmmi10_126"/>
  </g>
  <g transform="translate(112.751114 22.107437)" style="fill: rgb(7.421875%,63.671875%,89.453125%);">
    <use xlink:href="#GLYPHcmmi10_110"/>
  </g>
  <path d="M140.102280 36.133865C140.102280 26.965637,135.437790 18.427261,127.722961 13.473709" style="stroke:rgb(7.421875%,63.671875%,89.453125%); stroke-width: 0.500000;stroke-linecap: round;stroke-linejoin: round;stroke-miterlimit: 10.000000;fill: none;"/>
  <path d="M131.596283 14.472290C130.341904 14.047287,129.048035 13.712204,127.722961 13.473709C128.491272 14.579330,129.169205 15.731186,129.755646 16.918701Z" style="stroke:rgb(7.421875%,63.671875%,89.453125%); stroke-width: 0.500000;fill: rgb(7.421875%,63.671875%,89.453125%);"/>
  <path d="M140.102280 36.133865C140.102280 41.292542,138.620605 46.342697,135.833389 50.683594" style="stroke:rgb(92.187500%,5.078125%,34.375000%); stroke-width: 0.500000;stroke-linecap: round;stroke-linejoin: round;stroke-miterlimit: 10.000000;fill: none;"/>
  <path d="M136.247635 46.705048C136.208542 48.034454,136.070862 49.364288,135.833389 50.683594C136.934204 49.918640,137.971909 49.075684,138.939621 48.163300Z" style="stroke:rgb(92.187500%,5.078125%,34.375000%); stroke-width: 0.500000;fill: rgb(92.187500%,5.078125%,34.375000%);"/>
  <g transform="translate(123.777252 29.782074)" style="fill: rgb(7.421875%,63.671875%,89.453125%);">
    <use xlink:href="#GLYPHcmmi10_18"/>
  </g>
  <g transform="translate(123.777252 42.523361)" style="fill: rgb(92.187500%,5.078125%,34.375000%);">
    <use xlink:href="#GLYPHcmmi10_33"/>
  </g>
  <path d="M70.653549 78.653549C62.614380 84.613724,51.895477 82.039658,42.307098 78.653549C27.796051 73.529022,13.257477 64.796310,13.960648 50.307098C17.592072 -24.520630,129.090591 35.328751,70.653549 78.653549Z" style="stroke:rgb(0.000000%,0.000000%,0.000000%); stroke-width: 0.500000;stroke-linecap: round;stroke-linejoin: round;stroke-miterlimit: 10.000000;fill: none;"/>
  <g transform="translate(27.749390 63.714005)" style="fill: rgb(0.000000%,0.000000%,0.000000%);">
    <use xlink:href="#GLYPHcmmi10_22"/>
  </g>
  <g transform="translate(33.752396 63.714005)" style="fill: rgb(0.000000%,0.000000%,0.000000%);">
    <use xlink:href="#GLYPHcmr10_40"/>
  </g>
  <g transform="translate(37.626694 63.714005)" style="fill: rgb(0.000000%,0.000000%,0.000000%);">
    <use xlink:href="#GLYPHcmmi10_120"/>
    <use xlink:href="#GLYPHcmmi10_59" x="5.715379"/>
  </g>
  <g transform="translate(47.748489 63.714005)" style="fill: rgb(0.000000%,0.000000%,0.000000%);">
    <use xlink:href="#GLYPHcmmi10_121"/>
  </g>
  <g transform="translate(52.990387 63.714005)" style="fill: rgb(0.000000%,0.000000%,0.000000%);">
    <use xlink:href="#GLYPHcmr10_41"/>
  </g>
</svg>